<mxfile host="app.diagrams.net" modified="2020-07-30T17:41:53.351Z" agent="5.0 (Windows NT 10.0; Win64; x64) AppleWebKit/537.36 (KHTML, like Gecko) Chrome/84.0.4147.89 Safari/537.36" etag="X3QmKSq67HO0TBZFkXmP" version="13.5.7" type="github">
  <diagram id="sha_s5GyTPkXEGSnrlma" name="Page-1">
    <mxGraphModel dx="1628" dy="1098" grid="1" gridSize="10" guides="1" tooltips="1" connect="1" arrows="1" fold="1" page="1" pageScale="1" pageWidth="850" pageHeight="1100" math="0" shadow="0">
      <root>
        <mxCell id="0" />
        <mxCell id="1" parent="0" />
        <mxCell id="qK90cA1Oco2FIeU65_ws-1" value="" style="whiteSpace=wrap;html=1;aspect=fixed;" vertex="1" parent="1">
          <mxGeometry x="80" y="80" width="720" height="720" as="geometry" />
        </mxCell>
        <mxCell id="qK90cA1Oco2FIeU65_ws-2" value="Cluster - &lt;span style=&quot;font-weight: normal&quot;&gt;small-test-take-2&lt;/span&gt;" style="text;html=1;strokeColor=none;fillColor=none;align=left;verticalAlign=middle;whiteSpace=wrap;rounded=0;fontSize=17;fontStyle=1" vertex="1" parent="1">
          <mxGeometry x="80" y="60" width="420" height="20" as="geometry" />
        </mxCell>
        <mxCell id="qK90cA1Oco2FIeU65_ws-3" value="" style="rounded=0;whiteSpace=wrap;html=1;fontSize=17;fillColor=#dae8fc;strokeColor=#6c8ebf;" vertex="1" parent="1">
          <mxGeometry x="100" y="120" width="340" height="650" as="geometry" />
        </mxCell>
        <mxCell id="qK90cA1Oco2FIeU65_ws-4" value="" style="rounded=0;whiteSpace=wrap;html=1;fontSize=17;fillColor=#dae8fc;strokeColor=#6c8ebf;" vertex="1" parent="1">
          <mxGeometry x="450" y="120" width="340" height="650" as="geometry" />
        </mxCell>
        <mxCell id="qK90cA1Oco2FIeU65_ws-5" value="Node - &lt;span style=&quot;font-weight: normal&quot;&gt;stt-etcpw1&lt;/span&gt;" style="text;html=1;strokeColor=none;fillColor=none;align=left;verticalAlign=middle;whiteSpace=wrap;rounded=0;fontSize=17;fontStyle=1" vertex="1" parent="1">
          <mxGeometry x="100" y="100" width="420" height="20" as="geometry" />
        </mxCell>
        <mxCell id="qK90cA1Oco2FIeU65_ws-6" value="Node - &lt;span style=&quot;font-weight: normal&quot;&gt;stt-w1&lt;/span&gt;" style="text;html=1;strokeColor=none;fillColor=none;align=left;verticalAlign=middle;whiteSpace=wrap;rounded=0;fontSize=17;fontStyle=1" vertex="1" parent="1">
          <mxGeometry x="450" y="100" width="420" height="20" as="geometry" />
        </mxCell>
        <mxCell id="qK90cA1Oco2FIeU65_ws-7" value="" style="rounded=1;whiteSpace=wrap;html=1;fontSize=17;fillColor=#e1d5e7;strokeColor=#9673a6;" vertex="1" parent="1">
          <mxGeometry x="110" y="160" width="320" height="130" as="geometry" />
        </mxCell>
        <mxCell id="qK90cA1Oco2FIeU65_ws-8" value="Namespace - &lt;span style=&quot;font-weight: normal&quot;&gt;dpt&lt;/span&gt;" style="text;html=1;strokeColor=none;fillColor=none;align=left;verticalAlign=middle;whiteSpace=wrap;rounded=0;fontSize=17;fontStyle=1" vertex="1" parent="1">
          <mxGeometry x="140" y="140" width="420" height="20" as="geometry" />
        </mxCell>
        <mxCell id="qK90cA1Oco2FIeU65_ws-9" value="" style="rounded=1;whiteSpace=wrap;html=1;fontSize=17;fillColor=#e1d5e7;strokeColor=#9673a6;" vertex="1" parent="1">
          <mxGeometry x="460" y="160" width="320" height="130" as="geometry" />
        </mxCell>
        <mxCell id="qK90cA1Oco2FIeU65_ws-10" value="Namespace - &lt;span style=&quot;font-weight: normal&quot;&gt;dpt&lt;/span&gt;" style="text;html=1;strokeColor=none;fillColor=none;align=left;verticalAlign=middle;whiteSpace=wrap;rounded=0;fontSize=17;fontStyle=1" vertex="1" parent="1">
          <mxGeometry x="490" y="140" width="420" height="20" as="geometry" />
        </mxCell>
        <mxCell id="qK90cA1Oco2FIeU65_ws-11" value="" style="rounded=1;whiteSpace=wrap;html=1;fontSize=17;fillColor=#e1d5e7;strokeColor=#9673a6;" vertex="1" parent="1">
          <mxGeometry x="110" y="330" width="320" height="220" as="geometry" />
        </mxCell>
        <mxCell id="qK90cA1Oco2FIeU65_ws-12" value="Namespace -&amp;nbsp;&lt;span style=&quot;font-weight: 400&quot;&gt;&amp;nbsp;redis&lt;/span&gt;" style="text;html=1;strokeColor=none;fillColor=none;align=left;verticalAlign=middle;whiteSpace=wrap;rounded=0;fontSize=17;fontStyle=1" vertex="1" parent="1">
          <mxGeometry x="140" y="310" width="420" height="20" as="geometry" />
        </mxCell>
        <mxCell id="qK90cA1Oco2FIeU65_ws-13" value="" style="rounded=1;whiteSpace=wrap;html=1;fontSize=17;fillColor=#e1d5e7;strokeColor=#9673a6;" vertex="1" parent="1">
          <mxGeometry x="460" y="330" width="320" height="220" as="geometry" />
        </mxCell>
        <mxCell id="qK90cA1Oco2FIeU65_ws-14" value="Namespace -&amp;nbsp;&lt;span style=&quot;font-weight: 400&quot;&gt;&amp;nbsp;redis&lt;/span&gt;" style="text;html=1;strokeColor=none;fillColor=none;align=left;verticalAlign=middle;whiteSpace=wrap;rounded=0;fontSize=17;fontStyle=1" vertex="1" parent="1">
          <mxGeometry x="490" y="310" width="420" height="20" as="geometry" />
        </mxCell>
        <mxCell id="qK90cA1Oco2FIeU65_ws-15" value="&lt;b&gt;Pod&amp;nbsp;&lt;/b&gt;-&lt;br&gt;Flask" style="shape=hexagon;perimeter=hexagonPerimeter2;whiteSpace=wrap;html=1;fixedSize=1;fontSize=17;fillColor=#fff2cc;strokeColor=#d6b656;" vertex="1" parent="1">
          <mxGeometry x="140" y="180" width="120" height="80" as="geometry" />
        </mxCell>
        <mxCell id="qK90cA1Oco2FIeU65_ws-16" value="&lt;b&gt;Pod&amp;nbsp;&lt;/b&gt;-&lt;br&gt;Flask" style="shape=hexagon;perimeter=hexagonPerimeter2;whiteSpace=wrap;html=1;fixedSize=1;fontSize=17;fillColor=#fff2cc;strokeColor=#d6b656;" vertex="1" parent="1">
          <mxGeometry x="490" y="180" width="120" height="80" as="geometry" />
        </mxCell>
        <mxCell id="qK90cA1Oco2FIeU65_ws-17" value="&lt;b&gt;Pod&amp;nbsp;&lt;/b&gt;-&lt;br&gt;redis-master-0" style="shape=hexagon;perimeter=hexagonPerimeter2;whiteSpace=wrap;html=1;fixedSize=1;fontSize=17;fillColor=#fff2cc;strokeColor=#d6b656;" vertex="1" parent="1">
          <mxGeometry x="140" y="350" width="150" height="80" as="geometry" />
        </mxCell>
        <mxCell id="qK90cA1Oco2FIeU65_ws-18" value="&lt;b&gt;Pod&amp;nbsp;&lt;/b&gt;-&lt;br&gt;redis-slave-1" style="shape=hexagon;perimeter=hexagonPerimeter2;whiteSpace=wrap;html=1;fixedSize=1;fontSize=17;fillColor=#fff2cc;strokeColor=#d6b656;" vertex="1" parent="1">
          <mxGeometry x="140" y="440" width="150" height="80" as="geometry" />
        </mxCell>
        <mxCell id="qK90cA1Oco2FIeU65_ws-19" value="&lt;b&gt;Pod&amp;nbsp;&lt;/b&gt;-&lt;br&gt;redis-slave-0" style="shape=hexagon;perimeter=hexagonPerimeter2;whiteSpace=wrap;html=1;fixedSize=1;fontSize=17;fillColor=#fff2cc;strokeColor=#d6b656;" vertex="1" parent="1">
          <mxGeometry x="490" y="350" width="150" height="80" as="geometry" />
        </mxCell>
        <mxCell id="qK90cA1Oco2FIeU65_ws-21" value="" style="curved=1;endArrow=classic;html=1;fontSize=17;entryX=1;entryY=0.5;entryDx=0;entryDy=0;exitX=1;exitY=0.5;exitDx=0;exitDy=0;startArrow=classic;startFill=1;" edge="1" parent="1" source="qK90cA1Oco2FIeU65_ws-17" target="qK90cA1Oco2FIeU65_ws-15">
          <mxGeometry width="50" height="50" relative="1" as="geometry">
            <mxPoint x="330" y="280" as="sourcePoint" />
            <mxPoint x="380" y="230" as="targetPoint" />
            <Array as="points">
              <mxPoint x="380" y="280" />
              <mxPoint x="330" y="230" />
            </Array>
          </mxGeometry>
        </mxCell>
        <mxCell id="qK90cA1Oco2FIeU65_ws-22" value="" style="curved=1;endArrow=classic;html=1;fontSize=17;entryX=0;entryY=0.5;entryDx=0;entryDy=0;exitX=1;exitY=0.5;exitDx=0;exitDy=0;startArrow=classic;startFill=1;fillColor=#f8cecc;strokeColor=#FF0000;" edge="1" parent="1" source="qK90cA1Oco2FIeU65_ws-17" target="qK90cA1Oco2FIeU65_ws-16">
          <mxGeometry width="50" height="50" relative="1" as="geometry">
            <mxPoint x="360" y="360" as="sourcePoint" />
            <mxPoint x="410" y="310" as="targetPoint" />
            <Array as="points">
              <mxPoint x="410" y="360" />
              <mxPoint x="370" y="270" />
            </Array>
          </mxGeometry>
        </mxCell>
      </root>
    </mxGraphModel>
  </diagram>
</mxfile>
